<svg width="40" height="34" viewBox="0 0 40 34" fill="none" xmlns="http://www.w3.org/2000/svg">
<rect x="20" width="24.0416" height="24.0416" transform="rotate(45 20 0)" fill="#FAFF00"/>
<rect x="26.2019" y="0.891357" width="24.0416" height="24.0416" transform="rotate(66.5154 26.2019 0.891357)" fill="#313131"/>
<g filter="url(#filter0_d_35_1708)">
<path d="M12.7324 18.1148V12.2397H14.1761V18.0269C14.1761 18.5709 14.3351 19.0019 14.6531 19.3199C14.9795 19.6296 15.4482 19.7844 16.0591 19.7844C16.67 19.7844 17.1345 19.6296 17.4525 19.3199C17.7789 19.0019 17.9421 18.5709 17.9421 18.0269V12.2397H19.3858V18.1148C19.3858 19.0438 19.0761 19.7928 18.4568 20.3619C17.8459 20.9142 17.0466 21.1904 16.0591 21.1904C15.0715 21.1904 14.2723 20.9142 13.6614 20.3619C13.0421 19.7928 12.7324 19.0438 12.7324 18.1148Z" fill="white"/>
<path d="M24.7651 16.5079L27.5143 21.0272H25.8698L23.9366 17.8512L22.0033 21.0272H20.3588L23.1206 16.5079L20.522 12.2397H22.1539L23.9366 15.1647L25.7192 12.2397H27.3637L24.7651 16.5079Z" fill="#FAFF00"/>
</g>
<defs>
<filter id="filter0_d_35_1708" x="0.80784" y="0.712665" width="38.631" height="32.7998" filterUnits="userSpaceOnUse" color-interpolation-filters="sRGB">
<feFlood flood-opacity="0" result="BackgroundImageFix"/>
<feColorMatrix in="SourceAlpha" type="matrix" values="0 0 0 0 0 0 0 0 0 0 0 0 0 0 0 0 0 0 127 0" result="hardAlpha"/>
<feOffset dy="0.397486"/>
<feGaussianBlur stdDeviation="5.96228"/>
<feComposite in2="hardAlpha" operator="out"/>
<feColorMatrix type="matrix" values="0 0 0 0 0 0 0 0 0 0 0 0 0 0 0 0 0 0 0.8 0"/>
<feBlend mode="normal" in2="BackgroundImageFix" result="effect1_dropShadow_35_1708"/>
<feBlend mode="normal" in="SourceGraphic" in2="effect1_dropShadow_35_1708" result="shape"/>
</filter>
</defs>
</svg>
