<svg width="102" height="38" viewBox="0 0 102 38" fill="none" xmlns="http://www.w3.org/2000/svg">
<g filter="url(#filter0_d_35_1687)">
<path d="M12.5234 20.6732V12.1117H14.2357V20.5996C14.2357 21.5202 14.5058 22.2444 15.0458 22.7722C15.5982 23.3 16.3715 23.5639 17.3657 23.5639C18.36 23.5639 19.1271 23.3 19.6672 22.7722C20.2196 22.2444 20.4958 21.5202 20.4958 20.5996V12.1117H22.1897V20.6732C22.1897 22.0725 21.7416 23.1834 20.8456 24.0058C19.9495 24.8282 18.7896 25.2394 17.3657 25.2394C15.9296 25.2394 14.7635 24.8282 13.8675 24.0058C12.9714 23.1834 12.5234 22.0725 12.5234 20.6732ZM28.3061 15.5547C29.3863 15.5547 30.2517 15.8984 30.9022 16.5858C31.5528 17.2609 31.878 18.1815 31.878 19.3475V25H30.2762V19.4396C30.2762 18.7031 30.0737 18.1262 29.6686 17.7089C29.2636 17.2916 28.7051 17.0829 27.9931 17.0829C27.1707 17.0829 26.5202 17.3407 26.0415 17.8562C25.5628 18.3594 25.3234 19.1143 25.3234 20.1208V25H23.7216V15.7941H25.3234V17.1197C25.9617 16.0764 26.9559 15.5547 28.3061 15.5547ZM34.0038 14.1186C33.6969 14.1186 33.4391 14.0142 33.2305 13.8056C33.0218 13.5969 32.9175 13.3453 32.9175 13.0507C32.9175 12.7561 33.0218 12.5045 33.2305 12.2958C33.4391 12.0749 33.6969 11.9644 34.0038 11.9644C34.2983 11.9644 34.55 12.0749 34.7586 12.2958C34.9673 12.5045 35.0716 12.7561 35.0716 13.0507C35.0716 13.3453 34.9673 13.5969 34.7586 13.8056C34.55 14.0142 34.2983 14.1186 34.0038 14.1186ZM34.7955 25H33.1936V15.7941H34.7955V25ZM46.261 15.5547C47.3044 15.5547 48.1391 15.8923 48.7651 16.5674C49.4033 17.2425 49.7225 18.1446 49.7225 19.2739V25H48.1206V19.3291C48.1206 18.6295 47.9365 18.0833 47.5683 17.6905C47.2123 17.2854 46.7213 17.0829 46.0953 17.0829C45.3834 17.0829 44.8249 17.3222 44.4199 17.801C44.0271 18.2674 43.8307 18.9609 43.8307 19.8815V25H42.2288V19.3291C42.2288 18.6295 42.0509 18.0833 41.6949 17.6905C41.3512 17.2854 40.8786 17.0829 40.2772 17.0829C39.5775 17.0829 39.0068 17.3284 38.5649 17.8194C38.1353 18.2981 37.9205 18.9854 37.9205 19.8815V25H36.3186V15.7941H37.9205V17.0277C38.5465 16.0457 39.4609 15.5547 40.6638 15.5547C41.9036 15.5547 42.8057 16.0764 43.3704 17.1197C44.0087 16.0764 44.9722 15.5547 46.261 15.5547ZM59.8607 21.1335H52.1461C52.3057 21.9436 52.68 22.5819 53.2692 23.0483C53.8584 23.5025 54.5949 23.7296 55.4786 23.7296C56.6938 23.7296 57.5776 23.2816 58.13 22.3855L59.4924 23.1588C58.5841 24.5458 57.2339 25.2394 55.4418 25.2394C53.9934 25.2394 52.8028 24.7852 51.8699 23.8769C50.9616 22.944 50.5074 21.7841 50.5074 20.397C50.5074 18.9977 50.9555 17.8439 51.8515 16.9356C52.7475 16.015 53.9075 15.5547 55.3313 15.5547C56.6816 15.5547 57.7801 16.0334 58.6271 16.9908C59.4863 17.9237 59.9159 19.0652 59.9159 20.4154C59.9159 20.6487 59.8975 20.888 59.8607 21.1335ZM55.3313 17.0645C54.4844 17.0645 53.7725 17.3038 53.1956 17.7825C52.6309 18.2612 52.2811 18.9118 52.1461 19.7342H58.2957C58.1606 18.8873 57.8231 18.2306 57.283 17.7641C56.7429 17.2977 56.0924 17.0645 55.3313 17.0645ZM65.575 15.7941V17.3407H63.1262V22.3303C63.1262 22.7844 63.2121 23.1097 63.384 23.3061C63.5681 23.4902 63.8443 23.5884 64.2125 23.6007C64.5807 23.6007 65.0349 23.5884 65.575 23.5639V25C64.1634 25.1841 63.1323 25.0675 62.4818 24.6502C61.8435 24.2328 61.5244 23.4595 61.5244 22.3303V17.3407H59.7016V15.7941H61.5244V13.6951L63.1262 13.2164V15.7941H65.575ZM68.2066 15.7941V17.3407C68.7344 16.1991 69.6918 15.6283 71.0788 15.6283V17.3038C70.2933 17.267 69.6182 17.4757 69.0535 17.9298C68.4889 18.384 68.2066 19.1143 68.2066 20.1208V25H66.6047V15.7941H68.2066ZM72.5357 14.1186C72.2288 14.1186 71.971 14.0142 71.7624 13.8056C71.5537 13.5969 71.4494 13.3453 71.4494 13.0507C71.4494 12.7561 71.5537 12.5045 71.7624 12.2958C71.971 12.0749 72.2288 11.9644 72.5357 11.9644C72.8303 11.9644 73.0819 12.0749 73.2906 12.2958C73.4992 12.5045 73.6036 12.7561 73.6036 13.0507C73.6036 13.3453 73.4992 13.5969 73.2906 13.8056C73.0819 14.0142 72.8303 14.1186 72.5357 14.1186ZM73.3274 25H71.7255V15.7941H73.3274V25ZM82.5305 12.1117H85.4764V12.9034H84.4453V15.7941H83.5799V12.9034H82.5305V12.1117ZM87.8331 13.8056L88.901 12.1117H89.7479V15.7941H88.901V13.511L87.8699 15.1312H87.7778L86.7468 13.511V15.7941H85.8998V12.1117H86.7468L87.8331 13.8056Z" fill="white"/>
<path d="M79.3246 20.2497L82.8413 25H80.9633L78.3856 21.5202L75.7895 25H73.9115L77.4466 20.2681L74.1141 15.7941H76.0105L78.3856 18.9977L80.7608 15.7941H82.6388L79.3246 20.2497Z" fill="#FAFF00"/>
</g>
<defs>
<filter id="filter0_d_35_1687" x="0.598841" y="0.437275" width="101.074" height="37.1609" filterUnits="userSpaceOnUse" color-interpolation-filters="sRGB">
<feFlood flood-opacity="0" result="BackgroundImageFix"/>
<feColorMatrix in="SourceAlpha" type="matrix" values="0 0 0 0 0 0 0 0 0 0 0 0 0 0 0 0 0 0 127 0" result="hardAlpha"/>
<feOffset dy="0.397486"/>
<feGaussianBlur stdDeviation="5.96228"/>
<feComposite in2="hardAlpha" operator="out"/>
<feColorMatrix type="matrix" values="0 0 0 0 0 0 0 0 0 0 0 0 0 0 0 0 0 0 0.8 0"/>
<feBlend mode="normal" in2="BackgroundImageFix" result="effect1_dropShadow_35_1687"/>
<feBlend mode="normal" in="SourceGraphic" in2="effect1_dropShadow_35_1687" result="shape"/>
</filter>
</defs>
</svg>
